<mxfile host="Electron" modified="2024-06-29T22:35:23.794Z" agent="Mozilla/5.0 (Windows NT 10.0; Win64; x64) AppleWebKit/537.36 (KHTML, like Gecko) draw.io/23.1.5 Chrome/120.0.6099.109 Electron/28.1.0 Safari/537.36" etag="wY-Id6L0RRJiUeGZN5Om" version="23.1.5" type="device">
  <diagram id="C5RBs43oDa-KdzZeNtuy" name="Page-1">
    <mxGraphModel dx="830" dy="478" grid="1" gridSize="10" guides="1" tooltips="1" connect="1" arrows="1" fold="1" page="1" pageScale="1" pageWidth="827" pageHeight="1169" math="0" shadow="0">
      <root>
        <mxCell id="WIyWlLk6GJQsqaUBKTNV-0" />
        <mxCell id="WIyWlLk6GJQsqaUBKTNV-1" parent="WIyWlLk6GJQsqaUBKTNV-0" />
        <mxCell id="2xcwfq8QFsBafLpMV9xf-0" value="Start" style="ellipse;whiteSpace=wrap;html=1;" vertex="1" parent="WIyWlLk6GJQsqaUBKTNV-1">
          <mxGeometry x="340" y="20" width="120" height="80" as="geometry" />
        </mxCell>
        <mxCell id="2xcwfq8QFsBafLpMV9xf-1" value="&lt;b&gt;setup()&lt;br&gt;&lt;/b&gt;&lt;li&gt;Konfiguriere Pins und Interrupts&lt;/li&gt;&lt;li&gt;Initialisiere LCD&lt;/li&gt;&lt;li&gt;Initialisiere LoRa&lt;/li&gt;" style="rounded=0;whiteSpace=wrap;html=1;" vertex="1" parent="WIyWlLk6GJQsqaUBKTNV-1">
          <mxGeometry x="300" y="130" width="200" height="70" as="geometry" />
        </mxCell>
        <mxCell id="2xcwfq8QFsBafLpMV9xf-3" value="" style="endArrow=classic;html=1;rounded=0;exitX=0.5;exitY=1;exitDx=0;exitDy=0;entryX=0.5;entryY=0;entryDx=0;entryDy=0;" edge="1" parent="WIyWlLk6GJQsqaUBKTNV-1" source="2xcwfq8QFsBafLpMV9xf-0" target="2xcwfq8QFsBafLpMV9xf-1">
          <mxGeometry width="50" height="50" relative="1" as="geometry">
            <mxPoint x="380" y="210" as="sourcePoint" />
            <mxPoint x="430" y="160" as="targetPoint" />
          </mxGeometry>
        </mxCell>
        <mxCell id="2xcwfq8QFsBafLpMV9xf-8" style="edgeStyle=orthogonalEdgeStyle;rounded=0;orthogonalLoop=1;jettySize=auto;html=1;exitX=1;exitY=0.5;exitDx=0;exitDy=0;" edge="1" parent="WIyWlLk6GJQsqaUBKTNV-1" source="2xcwfq8QFsBafLpMV9xf-4" target="2xcwfq8QFsBafLpMV9xf-6">
          <mxGeometry relative="1" as="geometry" />
        </mxCell>
        <mxCell id="2xcwfq8QFsBafLpMV9xf-9" style="edgeStyle=orthogonalEdgeStyle;rounded=0;orthogonalLoop=1;jettySize=auto;html=1;exitX=0.5;exitY=1;exitDx=0;exitDy=0;entryX=0.5;entryY=0;entryDx=0;entryDy=0;" edge="1" parent="WIyWlLk6GJQsqaUBKTNV-1" source="2xcwfq8QFsBafLpMV9xf-4" target="2xcwfq8QFsBafLpMV9xf-5">
          <mxGeometry relative="1" as="geometry" />
        </mxCell>
        <mxCell id="2xcwfq8QFsBafLpMV9xf-10" style="edgeStyle=orthogonalEdgeStyle;rounded=0;orthogonalLoop=1;jettySize=auto;html=1;" edge="1" parent="WIyWlLk6GJQsqaUBKTNV-1" source="2xcwfq8QFsBafLpMV9xf-4" target="2xcwfq8QFsBafLpMV9xf-7">
          <mxGeometry relative="1" as="geometry" />
        </mxCell>
        <mxCell id="2xcwfq8QFsBafLpMV9xf-4" value="&lt;b&gt;loop()&lt;/b&gt;" style="rounded=0;whiteSpace=wrap;html=1;" vertex="1" parent="WIyWlLk6GJQsqaUBKTNV-1">
          <mxGeometry x="340" y="220" width="120" height="60" as="geometry" />
        </mxCell>
        <mxCell id="2xcwfq8QFsBafLpMV9xf-13" value="" style="edgeStyle=orthogonalEdgeStyle;rounded=0;orthogonalLoop=1;jettySize=auto;html=1;" edge="1" parent="WIyWlLk6GJQsqaUBKTNV-1" source="2xcwfq8QFsBafLpMV9xf-5" target="2xcwfq8QFsBafLpMV9xf-11">
          <mxGeometry relative="1" as="geometry" />
        </mxCell>
        <mxCell id="2xcwfq8QFsBafLpMV9xf-5" value="controller.run()&amp;nbsp;" style="rounded=0;whiteSpace=wrap;html=1;" vertex="1" parent="WIyWlLk6GJQsqaUBKTNV-1">
          <mxGeometry x="340" y="310" width="120" height="30" as="geometry" />
        </mxCell>
        <mxCell id="2xcwfq8QFsBafLpMV9xf-17" value="" style="edgeStyle=orthogonalEdgeStyle;rounded=0;orthogonalLoop=1;jettySize=auto;html=1;" edge="1" parent="WIyWlLk6GJQsqaUBKTNV-1" source="2xcwfq8QFsBafLpMV9xf-6" target="2xcwfq8QFsBafLpMV9xf-16">
          <mxGeometry relative="1" as="geometry" />
        </mxCell>
        <mxCell id="2xcwfq8QFsBafLpMV9xf-6" value="resetDisplayFlag&lt;br&gt;(Button)" style="rounded=0;whiteSpace=wrap;html=1;" vertex="1" parent="WIyWlLk6GJQsqaUBKTNV-1">
          <mxGeometry x="560" y="290" width="120" height="40" as="geometry" />
        </mxCell>
        <mxCell id="2xcwfq8QFsBafLpMV9xf-15" value="" style="edgeStyle=orthogonalEdgeStyle;rounded=0;orthogonalLoop=1;jettySize=auto;html=1;" edge="1" parent="WIyWlLk6GJQsqaUBKTNV-1" source="2xcwfq8QFsBafLpMV9xf-7" target="2xcwfq8QFsBafLpMV9xf-14">
          <mxGeometry relative="1" as="geometry" />
        </mxCell>
        <mxCell id="2xcwfq8QFsBafLpMV9xf-7" value="buttonPressed&lt;br&gt;(Button)" style="rounded=0;whiteSpace=wrap;html=1;" vertex="1" parent="WIyWlLk6GJQsqaUBKTNV-1">
          <mxGeometry x="120" y="290" width="120" height="40" as="geometry" />
        </mxCell>
        <mxCell id="2xcwfq8QFsBafLpMV9xf-11" value="periodische Aufgaben ausführen" style="rounded=0;whiteSpace=wrap;html=1;" vertex="1" parent="WIyWlLk6GJQsqaUBKTNV-1">
          <mxGeometry x="340" y="360" width="120" height="40" as="geometry" />
        </mxCell>
        <mxCell id="2xcwfq8QFsBafLpMV9xf-12" style="edgeStyle=orthogonalEdgeStyle;rounded=0;orthogonalLoop=1;jettySize=auto;html=1;exitX=0.5;exitY=1;exitDx=0;exitDy=0;" edge="1" parent="WIyWlLk6GJQsqaUBKTNV-1" source="2xcwfq8QFsBafLpMV9xf-5" target="2xcwfq8QFsBafLpMV9xf-5">
          <mxGeometry relative="1" as="geometry" />
        </mxCell>
        <mxCell id="2xcwfq8QFsBafLpMV9xf-14" value="&lt;li&gt;Setze buttonPressed zurück&lt;/li&gt;&lt;li&gt;Handle Navigation Button&lt;/li&gt;&lt;li&gt;Aktualisiere Display&lt;/li&gt;" style="rounded=0;whiteSpace=wrap;html=1;" vertex="1" parent="WIyWlLk6GJQsqaUBKTNV-1">
          <mxGeometry x="80" y="400" width="200" height="50" as="geometry" />
        </mxCell>
        <mxCell id="2xcwfq8QFsBafLpMV9xf-16" value="&lt;li&gt;Initialisiere LCD neu&lt;/li&gt;&lt;li&gt;Setze resetDisplayFlag zurück&lt;/li&gt;&lt;li&gt;Aktualisiere Display&lt;/li&gt;" style="rounded=0;whiteSpace=wrap;html=1;" vertex="1" parent="WIyWlLk6GJQsqaUBKTNV-1">
          <mxGeometry x="520" y="400" width="200" height="50" as="geometry" />
        </mxCell>
      </root>
    </mxGraphModel>
  </diagram>
</mxfile>
